<svg width="150" height="150" viewBox="0 0 150 150" fill="none" xmlns="http://www.w3.org/2000/svg">
<path d="M69.25 86.8738H80.5M69.25 71.8738V64.3738V71.8738ZM80.5 71.8738V68.1238V71.8738ZM74.875 71.8738V69.9988V71.8738ZM58 56.8738H91.75H58ZM59.875 56.8738V75.6238C59.875 76.6183 60.2701 77.5722 60.9733 78.2754C61.6766 78.9787 62.6304 79.3738 63.625 79.3738H86.125C87.1196 79.3738 88.0734 78.9787 88.7766 78.2754C89.4799 77.5722 89.875 76.6183 89.875 75.6238V56.8738H59.875ZM74.875 79.3738V86.8738V79.3738Z" stroke="#C5945C" stroke-width="3" stroke-linecap="round" stroke-linejoin="round"/>
<path fill-rule="evenodd" clip-rule="evenodd" d="M40.7197 46.696C53.5592 31.2366 68.2393 13.2057 87.5521 18.7612C111.286 25.5884 130.392 47.2963 128.369 71.9091C126.487 94.7962 102.124 105.146 79.957 111.144C57.9307 117.103 30.6513 121.05 18.7852 101.56C7.46174 82.961 26.8076 63.4468 40.7197 46.696Z" stroke="#C5945C" stroke-width="4"/>
</svg>
