<svg width="150" height="150" viewBox="0 0 150 150" fill="none" xmlns="http://www.w3.org/2000/svg">
<path d="M71.6503 90.8072H73.4335V87.2407H71.6699C71.1207 87.23 66.3007 86.9322 66.3007 80.1079C66.3007 76.5539 65.1148 74.3195 63.6223 72.975C65.1148 71.6305 66.3007 69.3961 66.3007 65.8421C66.3007 59.0178 71.1207 58.72 71.6503 58.7093H73.4335V55.1428H71.6467C68.5636 55.15 62.7342 57.3968 62.7342 65.8421C62.7342 70.8351 59.742 71.174 59.1428 71.1918L59.1678 74.7582C59.314 74.7582 62.7342 74.8188 62.7342 80.1079C62.7342 88.5532 68.5636 90.8 71.6503 90.8072ZM94.8321 71.1918C94.6859 71.1918 91.2657 71.1312 91.2657 65.8421C91.2657 57.3968 85.4364 55.15 82.3496 55.1428H80.5664V58.7093H82.33C82.8792 58.72 87.6993 59.0178 87.6993 65.8421C87.6993 69.3961 88.8851 71.6305 90.3777 72.975C88.8851 74.3195 87.6993 76.5539 87.6993 80.1079C87.6993 86.9322 82.8792 87.23 82.3496 87.2407H80.5664V90.8072H82.3532C85.4364 90.8 91.2657 88.5532 91.2657 80.1079C91.2657 75.1149 94.2579 74.7761 94.8571 74.7582L94.8321 71.1918Z" fill="#C5945C"/>
<path fill-rule="evenodd" clip-rule="evenodd" d="M90.6612 22.503C112.43 24.7021 121.762 47.4997 127.984 68.3079C133.535 86.8728 135.357 108.427 119.886 120.236C103.347 132.86 80.9726 128.704 63.3185 117.667C39.9007 103.026 11.6716 83.7302 19.2586 57.3241C27.2954 29.3529 61.4903 19.556 90.6612 22.503Z" stroke="#C5945C" stroke-width="4"/>
</svg>
