<svg width="150" height="150" viewBox="0 0 150 150" fill="none" xmlns="http://www.w3.org/2000/svg">
<path d="M72.5549 53.6684C70.8382 53.6684 69.2362 54.1476 67.8704 54.9824C67.7293 54.2273 67.472 53.4986 67.1077 52.8224C68.8206 51.8744 70.7512 51.3899 72.7088 51.4167C74.6663 51.4435 76.5829 51.9806 78.2693 52.975C79.9556 53.9694 81.3533 55.3867 82.3242 57.0867C83.295 58.7867 83.8054 60.7107 83.8049 62.6684H89.4322C90.3269 62.669 91.1848 63.0248 91.8172 63.6577C92.4497 64.2905 92.8049 65.1487 92.8049 66.0434V79.5434C92.8049 80.4385 92.4494 81.2969 91.8164 81.9299C91.1835 82.5628 90.325 82.9184 89.4299 82.9184H75.9299C75.0348 82.9184 74.1764 82.5628 73.5434 81.9299C72.9105 81.2969 72.5549 80.4385 72.5549 79.5434V73.9184C70.9898 73.9203 69.4416 73.5946 68.0099 72.9621C68.0392 72.1971 68.0549 71.3939 68.0549 70.5434V70.4646C69.3779 71.2296 70.9147 71.6684 72.5549 71.6684V66.0434C72.5549 65.1483 72.9105 64.2898 73.5434 63.6569C74.1764 63.0239 75.0348 62.6684 75.9299 62.6684H81.5549C81.5549 60.2814 80.6067 57.9922 78.9189 56.3044C77.2311 54.6166 74.9419 53.6684 72.5549 53.6684ZM83.5799 64.9184C83.1374 67.0796 82.0699 69.0634 80.5099 70.6233C78.9499 72.1833 76.9662 73.2508 74.8049 73.6934V79.5434C74.8049 79.8417 74.9235 80.1279 75.1344 80.3389C75.3454 80.5498 75.6316 80.6684 75.9299 80.6684H89.4299C89.7283 80.6684 90.0144 80.5498 90.2254 80.3389C90.4364 80.1279 90.5549 79.8417 90.5549 79.5434V66.0434C90.5549 65.745 90.4364 65.4588 90.2254 65.2479C90.0144 65.0369 89.7283 64.9184 89.4299 64.9184H83.5799ZM81.2714 64.9184H75.9299C75.6316 64.9184 75.3454 65.0369 75.1344 65.2479C74.9235 65.4588 74.8049 65.745 74.8049 66.0434V71.3849C76.3615 70.9816 77.7819 70.1694 78.9189 69.0324C80.0559 67.8953 80.8682 66.4749 81.2714 64.9184V64.9184ZM62.6122 49.4496C62.7989 49.613 62.9265 49.8335 62.9749 50.0768C63.0233 50.3202 62.9899 50.5727 62.8799 50.7951C62.8609 50.8609 62.851 50.9291 62.8507 50.9976C62.8507 51.1394 62.8867 51.4094 63.2264 51.7469C63.3907 51.9111 63.5167 52.0281 63.6539 52.1564C63.7664 52.2599 63.8857 52.3679 64.0364 52.5164C64.3289 52.7954 64.6372 53.1239 64.9139 53.5356C65.4877 54.3974 65.8049 55.4751 65.8049 57.0434C65.8049 58.9626 65.0939 60.5984 63.9847 61.6019L64.1287 61.7684C64.7587 62.5424 65.1254 63.5459 65.3549 64.5359C65.8049 66.4934 65.8049 68.8469 65.8049 70.4871V70.5434C65.8049 76.8141 64.9522 80.3714 64.0139 82.4054C63.5414 83.4291 63.0397 84.0816 62.6054 84.4911C62.4289 84.6605 62.2342 84.8099 62.0249 84.9366C61.9291 84.9943 61.8291 85.0447 61.7257 85.0874C61.7257 85.0874 61.4714 85.1684 61.3049 85.1684C61.1384 85.1684 60.8842 85.0874 60.8842 85.0874C60.7797 85.0472 60.6794 84.9967 60.5849 84.9366C60.3757 84.8099 60.181 84.6605 60.0044 84.4911C59.5702 84.0794 59.0684 83.4291 58.5959 82.4054C57.6577 80.3714 56.8049 76.8141 56.8049 70.5434V70.4871C56.8049 68.8446 56.8049 66.4934 57.2549 64.5359C57.4844 63.5459 57.8512 62.5424 58.4812 61.7684C58.5262 61.7121 58.5757 61.6559 58.6252 61.6019C57.5159 60.5984 56.8049 58.9626 56.8049 57.0434C56.8049 56.3099 57.0007 55.4346 57.2707 54.6269C57.5407 53.8169 57.9187 52.9799 58.3552 52.3049C58.8749 51.4274 59.6062 50.6916 60.1732 50.1966C60.484 49.9232 60.8084 49.6657 61.1452 49.4249L61.2127 49.3799L61.2329 49.3641L61.2397 49.3596L61.2442 49.3574C61.4505 49.2198 61.6965 49.1543 61.9439 49.171C62.1912 49.1877 62.4262 49.2856 62.6122 49.4496V49.4496ZM61.3049 60.4184C62.1757 60.4161 63.5549 59.4509 63.5549 57.0434C63.5549 55.7991 63.3097 55.1894 63.0397 54.7844C62.8755 54.5478 62.6862 54.3298 62.4749 54.1341L62.1959 53.8731C62.0137 53.7021 61.7999 53.5041 61.6334 53.3399C61.3873 53.0963 61.1761 52.82 61.0057 52.5186C60.7193 52.8198 60.4672 53.1518 60.2542 53.5086C59.9392 53.9924 59.6332 54.6561 59.4059 55.3401C59.1719 56.0376 59.0549 56.6541 59.0549 57.0434C59.0549 59.4554 60.4387 60.4184 61.3049 60.4184H61.3094H61.3049ZM60.2249 63.1904C59.9054 63.5796 59.6399 64.2006 59.4464 65.0421C59.0594 66.7251 59.0549 68.8401 59.0549 70.5434C59.0549 76.6476 59.8897 79.8404 60.6389 81.4626C60.8864 81.9959 61.1182 82.3514 61.3049 82.5876C61.5708 82.2404 61.7943 81.8627 61.9709 81.4626C62.7202 79.8404 63.5549 76.6476 63.5549 70.5434C63.5549 68.8401 63.5504 66.7251 63.1612 65.0421C62.9677 64.2006 62.7022 63.5796 62.3849 63.1904C62.2608 63.0222 62.0976 62.8868 61.9095 62.7958C61.7213 62.7049 61.5138 62.6611 61.3049 62.6684H61.3004C61.0923 62.6617 60.8856 62.7057 60.6983 62.7967C60.5109 62.8876 60.3485 63.0227 60.2249 63.1904V63.1904Z" fill="#C5945C"/>
<path d="M61.3049 60.4184C62.1757 60.4161 63.5549 59.4509 63.5549 57.0434C63.5549 55.7991 63.3097 55.1894 63.0397 54.7844C62.8755 54.5478 62.6862 54.3298 62.4749 54.1341L62.1959 53.8731C62.0137 53.7021 61.7999 53.5041 61.6334 53.3399C61.3873 53.0963 61.1761 52.82 61.0057 52.5186C60.7193 52.8198 60.4672 53.1518 60.2542 53.5086C59.9392 53.9924 59.6332 54.6561 59.4059 55.3401C59.1719 56.0376 59.0549 56.6541 59.0549 57.0434C59.0549 59.4554 60.4387 60.4184 61.3049 60.4184ZM61.3049 60.4184H61.3094H61.3049ZM72.5549 53.6684C70.8382 53.6684 69.2362 54.1476 67.8704 54.9824C67.7293 54.2273 67.472 53.4986 67.1077 52.8224C68.8206 51.8744 70.7512 51.3899 72.7088 51.4167C74.6663 51.4435 76.5829 51.9806 78.2693 52.975C79.9556 53.9694 81.3533 55.3867 82.3242 57.0867C83.295 58.7867 83.8054 60.7107 83.8049 62.6684H89.4322C90.3269 62.669 91.1848 63.0248 91.8172 63.6577C92.4497 64.2905 92.8049 65.1487 92.8049 66.0434V79.5434C92.8049 80.4385 92.4494 81.2969 91.8164 81.9299C91.1835 82.5628 90.325 82.9184 89.4299 82.9184H75.9299C75.0348 82.9184 74.1764 82.5628 73.5434 81.9299C72.9105 81.2969 72.5549 80.4385 72.5549 79.5434V73.9184C70.9898 73.9203 69.4416 73.5946 68.0099 72.9621C68.0392 72.1971 68.0549 71.3939 68.0549 70.5434V70.4646C69.3779 71.2296 70.9147 71.6684 72.5549 71.6684V66.0434C72.5549 65.1483 72.9105 64.2898 73.5434 63.6569C74.1764 63.0239 75.0348 62.6684 75.9299 62.6684H81.5549C81.5549 60.2814 80.6067 57.9922 78.9189 56.3044C77.2311 54.6166 74.9419 53.6684 72.5549 53.6684ZM83.5799 64.9184C83.1374 67.0796 82.0699 69.0634 80.5099 70.6233C78.9499 72.1833 76.9662 73.2508 74.8049 73.6934V79.5434C74.8049 79.8417 74.9235 80.1279 75.1344 80.3389C75.3454 80.5498 75.6316 80.6684 75.9299 80.6684H89.4299C89.7283 80.6684 90.0144 80.5498 90.2254 80.3389C90.4364 80.1279 90.5549 79.8417 90.5549 79.5434V66.0434C90.5549 65.745 90.4364 65.4588 90.2254 65.2479C90.0144 65.0369 89.7283 64.9184 89.4299 64.9184H83.5799ZM81.2714 64.9184H75.9299C75.6316 64.9184 75.3454 65.0369 75.1344 65.2479C74.9235 65.4588 74.8049 65.745 74.8049 66.0434V71.3849C76.3615 70.9816 77.7819 70.1694 78.9189 69.0324C80.0559 67.8953 80.8682 66.4749 81.2714 64.9184V64.9184ZM62.6122 49.4496C62.7989 49.613 62.9265 49.8335 62.9749 50.0768C63.0233 50.3202 62.9899 50.5727 62.8799 50.7951C62.8609 50.8609 62.851 50.9291 62.8507 50.9976C62.8507 51.1394 62.8867 51.4094 63.2264 51.7469C63.3907 51.9111 63.5167 52.0281 63.6539 52.1564C63.7664 52.2599 63.8857 52.3679 64.0364 52.5164C64.3289 52.7954 64.6372 53.1239 64.9139 53.5356C65.4877 54.3974 65.8049 55.4751 65.8049 57.0434C65.8049 58.9626 65.0939 60.5984 63.9847 61.6019L64.1287 61.7684C64.7587 62.5424 65.1254 63.5459 65.3549 64.5359C65.8049 66.4934 65.8049 68.8469 65.8049 70.4871V70.5434C65.8049 76.8141 64.9522 80.3714 64.0139 82.4054C63.5414 83.4291 63.0397 84.0816 62.6054 84.4911C62.4289 84.6605 62.2342 84.8099 62.0249 84.9366C61.9291 84.9943 61.8291 85.0447 61.7257 85.0874C61.7257 85.0874 61.4714 85.1684 61.3049 85.1684C61.1384 85.1684 60.8842 85.0874 60.8842 85.0874C60.7797 85.0472 60.6794 84.9967 60.5849 84.9366C60.3757 84.8099 60.181 84.6605 60.0044 84.4911C59.5702 84.0794 59.0684 83.4291 58.5959 82.4054C57.6577 80.3714 56.8049 76.8141 56.8049 70.5434V70.4871C56.8049 68.8446 56.8049 66.4934 57.2549 64.5359C57.4844 63.5459 57.8512 62.5424 58.4812 61.7684C58.5262 61.7121 58.5757 61.6559 58.6252 61.6019C57.5159 60.5984 56.8049 58.9626 56.8049 57.0434C56.8049 56.3099 57.0007 55.4346 57.2707 54.6269C57.5407 53.8169 57.9187 52.9799 58.3552 52.3049C58.8749 51.4274 59.6062 50.6916 60.1732 50.1966C60.484 49.9232 60.8084 49.6657 61.1452 49.4249L61.2127 49.3799L61.2329 49.3641L61.2397 49.3596L61.2442 49.3574C61.4505 49.2198 61.6965 49.1543 61.9439 49.171C62.1912 49.1877 62.4262 49.2856 62.6122 49.4496V49.4496ZM60.2249 63.1904C59.9054 63.5796 59.6399 64.2006 59.4464 65.0421C59.0594 66.7251 59.0549 68.8401 59.0549 70.5434C59.0549 76.6476 59.8897 79.8404 60.6389 81.4626C60.8864 81.9959 61.1182 82.3514 61.3049 82.5876C61.5708 82.2404 61.7943 81.8627 61.9709 81.4626C62.7202 79.8404 63.5549 76.6476 63.5549 70.5434C63.5549 68.8401 63.5504 66.7251 63.1612 65.0421C62.9677 64.2006 62.7022 63.5796 62.3849 63.1904C62.2608 63.0222 62.0976 62.8868 61.9095 62.7958C61.7213 62.7049 61.5138 62.6611 61.3049 62.6684H61.3004C61.0923 62.6617 60.8856 62.7057 60.6983 62.7967C60.5109 62.8876 60.3485 63.0227 60.2249 63.1904V63.1904Z" stroke="#C5945C" stroke-width="0.8"/>
<path fill-rule="evenodd" clip-rule="evenodd" d="M106.582 36.8207C123.551 46.4978 137.783 62.9861 134.045 82.1596C130.663 99.5057 110.181 103.01 92.9289 106.842C70.7235 111.773 44.0995 123.75 31.2338 104.991C15.0671 81.4202 17.5167 46.9693 38.7119 27.7932C57.4227 10.8648 84.6638 24.321 106.582 36.8207Z" stroke="#C5945C" stroke-width="4"/>
</svg>
