<svg width="32" height="32" viewBox="0 0 32 32" fill="none" xmlns="http://www.w3.org/2000/svg">
<path d="M2.66669 7.99341C2.66669 7.26008 3.26135 6.66675 3.99335 6.66675H14.6734C15.0252 6.66675 15.3626 6.80652 15.6114 7.05532C15.8602 7.30412 16 7.64156 16 7.99341C16 8.34527 15.8602 8.68271 15.6114 8.93151C15.3626 9.18031 15.0252 9.32008 14.6734 9.32008H3.99335C3.6415 9.32008 3.30406 9.18031 3.05526 8.93151C2.80646 8.68271 2.66669 8.34527 2.66669 7.99341ZM2.66669 16.0001C2.66669 15.2667 3.26135 14.6734 3.99335 14.6734H28.0067C28.3585 14.6734 28.696 14.8132 28.9448 15.062C29.1936 15.3108 29.3334 15.6482 29.3334 16.0001C29.3334 16.3519 29.1936 16.6894 28.9448 16.9382C28.696 17.187 28.3585 17.3267 28.0067 17.3267H3.99335C3.6415 17.3267 3.30406 17.187 3.05526 16.9382C2.80646 16.6894 2.66669 16.3519 2.66669 16.0001ZM3.99335 22.6801C3.6415 22.6801 3.30406 22.8199 3.05526 23.0687C2.80646 23.3174 2.66669 23.6549 2.66669 24.0067C2.66669 24.3586 2.80646 24.696 3.05526 24.9448C3.30406 25.1936 3.6415 25.3334 3.99335 25.3334H20.0067C20.3585 25.3334 20.696 25.1936 20.9448 24.9448C21.1936 24.696 21.3334 24.3586 21.3334 24.0067C21.3334 23.6549 21.1936 23.3174 20.9448 23.0687C20.696 22.8199 20.3585 22.6801 20.0067 22.6801H3.99335Z" fill="white"/>
</svg>
