<svg width="150" height="150" viewBox="0 0 150 150" fill="none" xmlns="http://www.w3.org/2000/svg">
<path d="M51.9652 84.693V64.893H80.7652V70.815C82.0612 71.211 83.2852 71.787 84.3652 72.561V64.893C84.3652 62.895 82.7632 61.293 80.7652 61.293H73.5652V57.693C73.5652 55.695 71.9632 54.093 69.9652 54.093H62.7652C60.7672 54.093 59.1652 55.695 59.1652 57.693V61.293H51.9652C49.9672 61.293 48.3832 62.895 48.3832 64.893L48.3652 84.693C48.3652 86.691 49.9672 88.293 51.9652 88.293H65.7892C65.2492 87.177 64.8892 85.971 64.7092 84.693H51.9652ZM62.7652 57.693H69.9652V61.293H62.7652V57.693Z" fill="#C5945C"/>
<path d="M76.8652 73.843C72.0352 73.843 68.1152 77.763 68.1152 82.593C68.1152 87.423 72.0352 91.343 76.8652 91.343C81.6952 91.343 85.6152 87.423 85.6152 82.593C85.6152 77.763 81.6952 73.843 76.8652 73.843ZM79.7527 86.7055L75.9902 82.943V77.343H77.7402V82.2255L80.9777 85.463L79.7527 86.7055V86.7055Z" fill="#C5945C"/>
<path fill-rule="evenodd" clip-rule="evenodd" d="M62.9056 123.351C40.8272 116.458 19.223 102.437 18.1687 79.3317C16.9915 53.5308 33.1668 27.9129 58.2746 21.8572C79.6726 16.6962 92.8583 40.3189 105.65 58.2322C117.71 75.1209 133.984 94.5853 122.597 111.934C110.307 130.657 84.2843 130.025 62.9056 123.351Z" stroke="#C5945C" stroke-width="4"/>
</svg>
